<?xml version="1.0" standalone="no"?><svg xmlns:xlink="http://www.w3.org/1999/xlink" xmlns="http://www.w3.org/2000/svg" viewBox="0 0 1000 1142.857142857143" preserveAspectRatio="xMaxYMax slice"><g transform="scale(2.249718785151856)"><rect x="0" y="0" width="444.5" height="508" fill="#ffffff"/><rect x="0" y="0" width="63.5" height="63.5" fill="#dee5ff"/><polygon points="63.5,0 63.5,63.5 0,63.5" fill="#717171"/><rect x="63.5" y="0" width="63.5" height="63.5" fill="#e1e1e1"/><polygon points="63.5,0 127,0 127,63.5" fill="#f7ffff"/><rect x="127" y="0" width="63.5" height="63.5" fill="#ffffff"/><rect x="127" y="0" width="31.75" height="31.75" fill="#f7ffff"/><polygon points="127,0 158.75,0 158.75,31.75" fill="#d8e0fe"/><rect x="158.75" y="0" width="31.75" height="31.75" fill="#faffff"/><polygon points="158.75,0 190.5,0 158.75,31.75" fill="#dce4ff"/><rect x="127" y="31.75" width="31.75" height="31.75" fill="#b9c8fe"/><polygon points="158.75,31.75 158.75,63.5 127,63.5" fill="#f6ffff"/><rect x="158.75" y="31.75" width="31.75" height="31.75" fill="#f8ffff"/><polygon points="158.75,31.75 190.5,31.75 158.75,63.5" fill="#8aa2fd"/><rect x="190.5" y="0" width="63.5" height="63.5" fill="#fbffff"/><polygon points="254,0 254,63.5 190.5,63.5" fill="#b5c5fe"/><rect x="254" y="0" width="63.5" height="63.5" fill="#ffffff"/><rect x="254" y="0" width="31.75" height="31.75" fill="#9d9d9d"/><polygon points="254,0 285.75,0 285.75,31.75" fill="#8c8c8c"/><rect x="285.75" y="0" width="31.75" height="31.75" fill="#feffff"/><polygon points="285.75,0 317.5,0 317.5,31.75" fill="#f8ffff"/><rect x="254" y="31.75" width="31.75" height="31.75" fill="#818181"/><polygon points="254,31.75 285.75,63.5 254,63.5" fill="#a9bbfe"/><rect x="285.75" y="31.75" width="31.75" height="31.75" fill="#8fa7fd"/><polygon points="285.75,31.75 317.5,31.75 317.5,63.5" fill="#f5f7ff"/><rect x="317.5" y="0" width="63.5" height="63.5" fill="#ffffff"/><rect x="317.5" y="0" width="31.75" height="31.75" fill="#f5ffff"/><polygon points="317.5,0 349.25,0 317.5,31.75" fill="#cacaca"/><rect x="349.25" y="0" width="31.75" height="31.75" fill="#fbffff"/><polygon points="349.25,0 381,0 381,31.75" fill="#f9ffff"/><rect x="317.5" y="31.75" width="31.75" height="31.75" fill="#e2e2e2"/><polygon points="317.5,31.75 349.25,31.75 317.5,63.5" fill="#aabbfe"/><rect x="349.25" y="31.75" width="31.75" height="31.75" fill="#888888"/><polygon points="349.25,31.75 381,63.5 349.25,63.5" fill="#1a1a1a"/><rect x="381" y="0" width="63.5" height="63.5" fill="#ffffff"/><rect x="381" y="0" width="31.75" height="31.75" fill="#383838"/><polygon points="381,0 412.75,0 412.75,31.75" fill="#9d9d9d"/><rect x="412.75" y="0" width="31.75" height="31.75" fill="#ffffff"/><polygon points="412.75,0 444.5,0 412.75,31.75" fill="#4c4c4c"/><rect x="381" y="31.75" width="31.75" height="31.75" fill="#7f9afd"/><polygon points="381,31.75 412.75,31.75 381,63.5" fill="#97adfe"/><rect x="412.75" y="31.75" width="31.75" height="31.75" fill="#f0f0f0"/><polygon points="412.75,31.75 444.5,63.5 412.75,63.5" fill="#f8ffff"/><rect x="0" y="63.5" width="63.5" height="63.5" fill="#fbffff"/><polygon points="0,63.5 63.5,63.5 0,127" fill="#97adfe"/><rect x="63.5" y="63.5" width="63.5" height="63.5" fill="#ffffff"/><rect x="63.5" y="63.5" width="31.75" height="31.75" fill="#fdffff"/><polygon points="95.25,63.5 95.25,95.25 63.5,95.25" fill="#f8ffff"/><rect x="95.25" y="63.5" width="31.75" height="31.75" fill="#b8b8b8"/><polygon points="95.25,63.5 127,95.25 95.25,95.25" fill="#f8faff"/><rect x="63.5" y="95.25" width="31.75" height="31.75" fill="#979797"/><polygon points="63.5,95.25 95.25,95.25 63.5,127" fill="#555555"/><rect x="95.25" y="95.25" width="31.75" height="31.75" fill="#faffff"/><polygon points="127,95.25 127,127 95.25,127" fill="#fcffff"/><rect x="127" y="63.5" width="63.5" height="63.5" fill="#9aaffe"/><polygon points="190.5,63.5 190.5,127 127,127" fill="#6f6f6f"/><rect x="190.5" y="63.5" width="63.5" height="63.5" fill="#ffffff"/><rect x="190.5" y="63.5" width="31.75" height="31.75" fill="#d4ddfe"/><polygon points="190.5,63.5 222.25,95.25 190.5,95.25" fill="#fdffff"/><rect x="222.25" y="63.5" width="31.75" height="31.75" fill="#f7ffff"/><polygon points="222.25,63.5 254,95.25 222.25,95.25" fill="#f7ffff"/><rect x="190.5" y="95.25" width="31.75" height="31.75" fill="#707070"/><polygon points="190.5,95.25 222.25,95.25 190.5,127" fill="#686868"/><rect x="222.25" y="95.25" width="31.75" height="31.75" fill="#dee5ff"/><polygon points="222.25,95.25 254,127 222.25,127" fill="#99aefe"/><rect x="254" y="63.5" width="63.5" height="63.5" fill="#b1c1fe"/><polygon points="254,63.5 317.5,63.5 254,127" fill="#faffff"/><rect x="317.5" y="63.5" width="63.5" height="63.5" fill="#ffffff"/><rect x="317.5" y="63.5" width="31.75" height="31.75" fill="#f4f4f4"/><polygon points="317.5,63.5 349.25,63.5 349.25,95.25" fill="#c6d2fe"/><rect x="349.25" y="63.5" width="31.75" height="31.75" fill="#d8e0fe"/><polygon points="349.25,63.5 381,95.25 349.25,95.25" fill="#fcffff"/><rect x="317.5" y="95.25" width="31.75" height="31.75" fill="#faffff"/><polygon points="349.25,95.25 349.25,127 317.5,127" fill="#b9c8fe"/><rect x="349.25" y="95.25" width="31.75" height="31.75" fill="#313131"/><polygon points="349.25,95.25 381,95.25 381,127" fill="#bcbcbc"/><rect x="381" y="63.5" width="63.5" height="63.5" fill="#bababa"/><polygon points="381,63.5 444.5,63.5 381,127" fill="#8fa7fd"/><rect x="0" y="127" width="63.5" height="63.5" fill="#ffffff"/><rect x="0" y="127" width="31.75" height="31.75" fill="#faffff"/><polygon points="0,127 31.75,158.75 0,158.75" fill="#fdffff"/><rect x="31.75" y="127" width="31.75" height="31.75" fill="#434343"/><polygon points="31.75,127 63.5,127 63.5,158.75" fill="#f8ffff"/><rect x="0" y="158.75" width="31.75" height="31.75" fill="#b0c1fe"/><polygon points="31.75,158.75 31.75,190.5 0,190.5" fill="#9aaffe"/><rect x="31.75" y="158.75" width="31.75" height="31.75" fill="#fdffff"/><polygon points="31.75,158.75 63.5,158.75 63.5,190.5" fill="#98adfe"/><rect x="63.5" y="127" width="63.5" height="63.5" fill="#fbfbfb"/><polygon points="127,127 127,190.5 63.5,190.5" fill="#728ffd"/><rect x="127" y="127" width="63.5" height="63.5" fill="#ffffff"/><rect x="127" y="127" width="31.75" height="31.75" fill="#acacac"/><polygon points="158.75,127 158.75,158.75 127,158.75" fill="#f7ffff"/><rect x="158.75" y="127" width="31.75" height="31.75" fill="#ffffff"/><polygon points="158.75,127 190.5,127 158.75,158.75" fill="#fcfcff"/><rect x="127" y="158.75" width="31.75" height="31.75" fill="#f8ffff"/><polygon points="127,158.75 158.75,158.75 127,190.5" fill="#c5d1fe"/><rect x="158.75" y="158.75" width="31.75" height="31.75" fill="#99aefe"/><polygon points="158.75,158.75 190.5,190.5 158.75,190.5" fill="#bababa"/><rect x="190.5" y="127" width="63.5" height="63.5" fill="#faffff"/><polygon points="190.5,127 254,127 190.5,190.5" fill="#696969"/><rect x="254" y="127" width="63.5" height="63.5" fill="#989898"/><polygon points="317.5,127 317.5,190.5 254,190.5" fill="#f8ffff"/><rect x="317.5" y="127" width="63.5" height="63.5" fill="#989898"/><polygon points="317.5,127 381,190.5 317.5,190.5" fill="#7e99fd"/><rect x="381" y="127" width="63.5" height="63.5" fill="#272727"/><polygon points="381,127 444.5,127 444.5,190.5" fill="#c8d4fe"/><rect x="0" y="190.5" width="63.5" height="63.5" fill="#ffffff"/><rect x="0" y="190.5" width="31.75" height="31.75" fill="#fbffff"/><polygon points="31.75,190.5 31.75,222.25 0,222.25" fill="#fcffff"/><rect x="31.75" y="190.5" width="31.75" height="31.75" fill="#7894fd"/><polygon points="31.75,190.5 63.5,190.5 63.5,222.25" fill="#faffff"/><rect x="0" y="222.25" width="31.75" height="31.75" fill="#adadad"/><polygon points="0,222.25 31.75,222.25 31.75,254" fill="#91a8fe"/><rect x="31.75" y="222.25" width="31.75" height="31.75" fill="#d6defe"/><polygon points="31.75,222.25 63.5,222.25 63.5,254" fill="#f5f5f5"/><rect x="63.5" y="190.5" width="63.5" height="63.5" fill="#ffffff"/><polygon points="63.5,190.5 127,190.5 127,254" fill="#c5d1fe"/><rect x="127" y="190.5" width="63.5" height="63.5" fill="#aebffe"/><polygon points="127,190.5 190.5,190.5 190.5,254" fill="#faffff"/><rect x="190.5" y="190.5" width="63.5" height="63.5" fill="#ffffff"/><rect x="190.5" y="190.5" width="31.75" height="31.75" fill="#9fb3fe"/><polygon points="190.5,190.5 222.25,222.25 190.5,222.25" fill="#6d8cfd"/><rect x="222.25" y="190.5" width="31.75" height="31.75" fill="#ecf0ff"/><polygon points="222.25,190.5 254,222.25 222.25,222.25" fill="#a7b9fe"/><rect x="190.5" y="222.25" width="31.75" height="31.75" fill="#c2c2c2"/><polygon points="190.5,222.25 222.25,222.25 190.5,254" fill="#6b6b6b"/><rect x="222.25" y="222.25" width="31.75" height="31.75" fill="#424242"/><polygon points="222.25,222.25 254,254 222.25,254" fill="#e3e3e3"/><rect x="254" y="190.5" width="63.5" height="63.5" fill="#ffffff"/><rect x="254" y="190.5" width="31.75" height="31.75" fill="#272727"/><polygon points="254,190.5 285.75,190.5 254,222.25" fill="#f1f4ff"/><rect x="285.75" y="190.5" width="31.75" height="31.75" fill="#c1cefe"/><polygon points="285.75,190.5 317.5,190.5 285.75,222.25" fill="#f7f9ff"/><rect x="254" y="222.25" width="31.75" height="31.75" fill="#bebebe"/><polygon points="285.75,222.25 285.75,254 254,254" fill="#656565"/><rect x="285.75" y="222.25" width="31.75" height="31.75" fill="#718efd"/><polygon points="317.5,222.25 317.5,254 285.75,254" fill="#f8f9ff"/><rect x="317.5" y="190.5" width="63.5" height="63.5" fill="#fdffff"/><polygon points="317.5,190.5 381,254 317.5,254" fill="#c8d3fe"/><rect x="381" y="190.5" width="63.5" height="63.5" fill="#1c1c1c"/><polygon points="381,190.5 444.5,190.5 381,254" fill="#f5f7ff"/><rect x="0" y="254" width="63.5" height="63.5" fill="#ffffff"/><rect x="0" y="254" width="31.75" height="31.75" fill="#fbffff"/><polygon points="0,254 31.75,285.75 0,285.75" fill="#fcffff"/><rect x="31.75" y="254" width="31.75" height="31.75" fill="#f7ffff"/><polygon points="31.75,254 63.5,254 31.75,285.75" fill="#f5f7ff"/><rect x="0" y="285.75" width="31.75" height="31.75" fill="#faffff"/><polygon points="31.75,285.75 31.75,317.5 0,317.5" fill="#fcffff"/><rect x="31.75" y="285.75" width="31.75" height="31.75" fill="#fdffff"/><polygon points="31.75,285.75 63.5,317.5 31.75,317.5" fill="#ced8fe"/><rect x="63.5" y="254" width="63.5" height="63.5" fill="#b8b8b8"/><polygon points="127,254 127,317.5 63.5,317.5" fill="#f7ffff"/><rect x="127" y="254" width="63.5" height="63.5" fill="#272727"/><polygon points="127,254 190.5,317.5 127,317.5" fill="#c8c8c8"/><rect x="190.5" y="254" width="63.5" height="63.5" fill="#fefeff"/><polygon points="190.5,254 254,254 190.5,317.5" fill="#a7bafe"/><rect x="254" y="254" width="63.5" height="63.5" fill="#ffffff"/><rect x="254" y="254" width="31.75" height="31.75" fill="#d6d6d6"/><polygon points="254,254 285.75,254 254,285.75" fill="#e2e8ff"/><rect x="285.75" y="254" width="31.75" height="31.75" fill="#b0c1fe"/><polygon points="285.75,254 317.5,254 285.75,285.75" fill="#c0c0c0"/><rect x="254" y="285.75" width="31.75" height="31.75" fill="#faffff"/><polygon points="254,285.75 285.75,317.5 254,317.5" fill="#d2dbfe"/><rect x="285.75" y="285.75" width="31.75" height="31.75" fill="#7693fd"/><polygon points="285.75,285.75 317.5,285.75 317.5,317.5" fill="#d6dffe"/><rect x="317.5" y="254" width="63.5" height="63.5" fill="#fbffff"/><polygon points="317.5,254 381,317.5 317.5,317.5" fill="#ffffff"/><rect x="381" y="254" width="63.5" height="63.5" fill="#ffffff"/><rect x="381" y="254" width="31.75" height="31.75" fill="#f7ffff"/><polygon points="381,254 412.75,285.75 381,285.75" fill="#eeeeee"/><rect x="412.75" y="254" width="31.75" height="31.75" fill="#feffff"/><polygon points="444.5,254 444.5,285.75 412.75,285.75" fill="#f7ffff"/><rect x="381" y="285.75" width="31.75" height="31.75" fill="#6d8cfd"/><polygon points="381,285.75 412.75,285.75 381,317.5" fill="#7e99fd"/><rect x="412.75" y="285.75" width="31.75" height="31.75" fill="#b3c3fe"/><polygon points="412.75,285.75 444.5,285.75 412.75,317.5" fill="#f8ffff"/><rect x="0" y="317.5" width="63.5" height="63.5" fill="#fbffff"/><polygon points="0,317.5 63.5,317.5 0,381" fill="#f9ffff"/><rect x="63.5" y="317.5" width="63.5" height="63.5" fill="#ffffff"/><rect x="63.5" y="317.5" width="31.75" height="31.75" fill="#7592fd"/><polygon points="63.5,317.5 95.25,349.25 63.5,349.25" fill="#afc0fe"/><rect x="95.25" y="317.5" width="31.75" height="31.75" fill="#d1dafe"/><polygon points="127,317.5 127,349.25 95.25,349.25" fill="#abbdfe"/><rect x="63.5" y="349.25" width="31.75" height="31.75" fill="#a0b4fe"/><polygon points="63.5,349.25 95.25,349.25 63.5,381" fill="#fbffff"/><rect x="95.25" y="349.25" width="31.75" height="31.75" fill="#fbffff"/><polygon points="95.25,349.25 127,349.25 127,381" fill="#b6c6fe"/><rect x="127" y="317.5" width="63.5" height="63.5" fill="#f4f4f4"/><polygon points="190.5,317.5 190.5,381 127,381" fill="#c6c6c6"/><rect x="190.5" y="317.5" width="63.5" height="63.5" fill="#ffffff"/><rect x="190.5" y="317.5" width="31.75" height="31.75" fill="#bebebe"/><polygon points="222.25,317.5 222.25,349.25 190.5,349.25" fill="#e0e7ff"/><rect x="222.25" y="317.5" width="31.75" height="31.75" fill="#e6ebff"/><polygon points="222.25,317.5 254,349.25 222.25,349.25" fill="#c2cefe"/><rect x="190.5" y="349.25" width="31.75" height="31.75" fill="#3a3a3a"/><polygon points="190.5,349.25 222.25,349.25 190.5,381" fill="#191919"/><rect x="222.25" y="349.25" width="31.75" height="31.75" fill="#f1f4ff"/><polygon points="222.25,349.25 254,349.25 254,381" fill="#fbffff"/><rect x="254" y="317.5" width="63.5" height="63.5" fill="#fcffff"/><polygon points="254,317.5 317.5,317.5 317.5,381" fill="#f9ffff"/><rect x="317.5" y="317.5" width="63.5" height="63.5" fill="#ffffff"/><rect x="317.5" y="317.5" width="31.75" height="31.75" fill="#aabcfe"/><polygon points="317.5,317.5 349.25,349.25 317.5,349.25" fill="#b1c1fe"/><rect x="349.25" y="317.5" width="31.75" height="31.75" fill="#626262"/><polygon points="381,317.5 381,349.25 349.25,349.25" fill="#849efd"/><rect x="317.5" y="349.25" width="31.75" height="31.75" fill="#f6ffff"/><polygon points="317.5,349.25 349.25,349.25 349.25,381" fill="#d8e0fe"/><rect x="349.25" y="349.25" width="31.75" height="31.75" fill="#9a9a9a"/><polygon points="349.25,349.25 381,349.25 381,381" fill="#f8f8f8"/><rect x="381" y="317.5" width="63.5" height="63.5" fill="#ffffff"/><rect x="381" y="317.5" width="31.75" height="31.75" fill="#fcffff"/><polygon points="412.75,317.5 412.75,349.25 381,349.25" fill="#939393"/><rect x="412.75" y="317.5" width="31.75" height="31.75" fill="#9bb0fe"/><polygon points="412.75,317.5 444.5,317.5 412.75,349.25" fill="#383838"/><rect x="381" y="349.25" width="31.75" height="31.75" fill="#f0f3ff"/><polygon points="381,349.25 412.75,349.25 381,381" fill="#595959"/><rect x="412.75" y="349.25" width="31.75" height="31.75" fill="#fcffff"/><polygon points="444.5,349.25 444.5,381 412.75,381" fill="#fcffff"/><rect x="0" y="381" width="63.5" height="63.5" fill="#ffffff"/><rect x="0" y="381" width="31.75" height="31.75" fill="#bdcbfe"/><polygon points="0,381 31.75,381 0,412.75" fill="#929292"/><rect x="31.75" y="381" width="31.75" height="31.75" fill="#a8bbfe"/><polygon points="63.5,381 63.5,412.75 31.75,412.75" fill="#f9fbff"/><rect x="0" y="412.75" width="31.75" height="31.75" fill="#abbcfe"/><polygon points="31.75,412.75 31.75,444.5 0,444.5" fill="#feffff"/><rect x="31.75" y="412.75" width="31.75" height="31.75" fill="#8da5fd"/><polygon points="31.75,412.75 63.5,444.5 31.75,444.5" fill="#f8ffff"/><rect x="63.5" y="381" width="63.5" height="63.5" fill="#ffffff"/><rect x="63.5" y="381" width="31.75" height="31.75" fill="#a5b8fe"/><polygon points="63.5,381 95.25,381 95.25,412.75" fill="#d8e0fe"/><rect x="95.25" y="381" width="31.75" height="31.75" fill="#d2d2d2"/><polygon points="95.25,381 127,412.75 95.25,412.75" fill="#fcfcfc"/><rect x="63.5" y="412.75" width="31.75" height="31.75" fill="#9db1fe"/><polygon points="63.5,412.75 95.25,444.5 63.5,444.5" fill="#f9ffff"/><rect x="95.25" y="412.75" width="31.75" height="31.75" fill="#ffffff"/><polygon points="95.25,412.75 127,412.75 127,444.5" fill="#dce3ff"/><rect x="127" y="381" width="63.5" height="63.5" fill="#f6ffff"/><polygon points="127,381 190.5,381 190.5,444.5" fill="#faffff"/><rect x="190.5" y="381" width="63.5" height="63.5" fill="#f3f3f3"/><polygon points="190.5,381 254,381 190.5,444.5" fill="#f8ffff"/><rect x="254" y="381" width="63.5" height="63.5" fill="#ffffff"/><rect x="254" y="381" width="31.75" height="31.75" fill="#7793fd"/><polygon points="254,381 285.75,381 254,412.75" fill="#f8ffff"/><rect x="285.75" y="381" width="31.75" height="31.75" fill="#a6a6a6"/><polygon points="317.5,381 317.5,412.75 285.75,412.75" fill="#feffff"/><rect x="254" y="412.75" width="31.75" height="31.75" fill="#484848"/><polygon points="254,412.75 285.75,412.75 285.75,444.5" fill="#90a7fd"/><rect x="285.75" y="412.75" width="31.75" height="31.75" fill="#5f5f5f"/><polygon points="285.75,412.75 317.5,412.75 285.75,444.5" fill="#feffff"/><rect x="317.5" y="381" width="63.5" height="63.5" fill="#fdffff"/><polygon points="317.5,381 381,381 317.5,444.5" fill="#7f9afd"/><rect x="381" y="381" width="63.5" height="63.5" fill="#ffffff"/><rect x="381" y="381" width="31.75" height="31.75" fill="#d1dbfe"/><polygon points="381,381 412.75,381 412.75,412.75" fill="#f6ffff"/><rect x="412.75" y="381" width="31.75" height="31.75" fill="#adadad"/><polygon points="412.75,381 444.5,381 412.75,412.75" fill="#dce3ff"/><rect x="381" y="412.75" width="31.75" height="31.75" fill="#ebefff"/><polygon points="381,412.75 412.75,412.75 381,444.5" fill="#eff3ff"/><rect x="412.75" y="412.75" width="31.75" height="31.75" fill="#faffff"/><polygon points="444.5,412.75 444.5,444.5 412.75,444.5" fill="#2b2b2b"/><rect x="0" y="444.5" width="63.5" height="63.5" fill="#ffffff"/><rect x="0" y="444.5" width="31.75" height="31.75" fill="#d5defe"/><polygon points="0,444.5 31.75,476.25 0,476.25" fill="#cfcfcf"/><rect x="31.75" y="444.5" width="31.75" height="31.75" fill="#bccafe"/><polygon points="31.75,444.5 63.5,476.25 31.75,476.25" fill="#feffff"/><rect x="0" y="476.25" width="31.75" height="31.75" fill="#c1c1c1"/><polygon points="31.75,476.25 31.75,508 0,508" fill="#5a5a5a"/><rect x="31.75" y="476.25" width="31.75" height="31.75" fill="#a6a6a6"/><polygon points="31.75,476.25 63.5,476.25 63.5,508" fill="#cdd7fe"/><rect x="63.5" y="444.5" width="63.5" height="63.5" fill="#ffffff"/><rect x="63.5" y="444.5" width="31.75" height="31.75" fill="#708efd"/><polygon points="63.5,444.5 95.25,476.25 63.5,476.25" fill="#feffff"/><rect x="95.25" y="444.5" width="31.75" height="31.75" fill="#8ba3fd"/><polygon points="127,444.5 127,476.25 95.25,476.25" fill="#a9bbfe"/><rect x="63.5" y="476.25" width="31.75" height="31.75" fill="#fdffff"/><polygon points="95.25,476.25 95.25,508 63.5,508" fill="#bbcafe"/><rect x="95.25" y="476.25" width="31.75" height="31.75" fill="#f7f9ff"/><polygon points="95.25,476.25 127,476.25 127,508" fill="#adbefe"/><rect x="127" y="444.5" width="63.5" height="63.5" fill="#faffff"/><polygon points="190.5,444.5 190.5,508 127,508" fill="#f3f6ff"/><rect x="190.5" y="444.5" width="63.5" height="63.5" fill="#ffffff"/><rect x="190.5" y="444.5" width="31.75" height="31.75" fill="#fbffff"/><polygon points="190.5,444.5 222.25,444.5 222.25,476.25" fill="#fcffff"/><rect x="222.25" y="444.5" width="31.75" height="31.75" fill="#7a7a7a"/><polygon points="254,444.5 254,476.25 222.25,476.25" fill="#e6e6e6"/><rect x="190.5" y="476.25" width="31.75" height="31.75" fill="#e6ebff"/><polygon points="190.5,476.25 222.25,508 190.5,508" fill="#dce3ff"/><rect x="222.25" y="476.25" width="31.75" height="31.75" fill="#ffffff"/><polygon points="254,476.25 254,508 222.25,508" fill="#f4f4f4"/><rect x="254" y="444.5" width="63.5" height="63.5" fill="#ffffff"/><rect x="254" y="444.5" width="31.75" height="31.75" fill="#353535"/><polygon points="285.75,444.5 285.75,476.25 254,476.25" fill="#93aafe"/><rect x="285.75" y="444.5" width="31.75" height="31.75" fill="#acbdfe"/><polygon points="285.75,444.5 317.5,444.5 285.75,476.25" fill="#96acfe"/><rect x="254" y="476.25" width="31.75" height="31.75" fill="#7390fd"/><polygon points="254,476.25 285.75,476.25 254,508" fill="#f5ffff"/><rect x="285.75" y="476.25" width="31.75" height="31.75" fill="#fdffff"/><polygon points="317.5,476.25 317.5,508 285.75,508" fill="#ffffff"/><rect x="317.5" y="444.5" width="63.5" height="63.5" fill="#ffffff"/><rect x="317.5" y="444.5" width="31.75" height="31.75" fill="#d1dbfe"/><polygon points="317.5,444.5 349.25,476.25 317.5,476.25" fill="#c3cffe"/><rect x="349.25" y="444.5" width="31.75" height="31.75" fill="#feffff"/><polygon points="349.25,444.5 381,476.25 349.25,476.25" fill="#f6ffff"/><rect x="317.5" y="476.25" width="31.75" height="31.75" fill="#abbdfe"/><polygon points="317.5,476.25 349.25,508 317.5,508" fill="#c7c7c7"/><rect x="349.25" y="476.25" width="31.75" height="31.75" fill="#fdffff"/><polygon points="349.25,476.25 381,476.25 381,508" fill="#505050"/><rect x="381" y="444.5" width="63.5" height="63.5" fill="#ffffff"/><polygon points="381,444.5 444.5,444.5 444.5,508" fill="#faffff"/></g></svg>